<svg xmlns="http://www.w3.org/2000/svg" xmlns:xlink="http://www.w3.org/1999/xlink" width="110" height="24" viewBox="0 0 110 24">
    <defs>
        <path id="l1pxj1baia" d="M0.002 0.006L26.283 0.006 26.283 23.891 0.002 23.891z"/>
    </defs>
    <g fill="none" fill-rule="evenodd">
        <g>
            <g>
                <g transform="translate(-112 -170) translate(112 170) translate(83.717)">
                    <mask id="zkewdwpg0b" fill="#fff">
                        <use xlink:href="#l1pxj1baia"/>
                    </mask>
                    <path fill="#F0FF5F" d="M21.684 23.89H4.6c-2.54 0-4.6-2.033-4.6-4.543V4.55c0-2.51 2.06-4.544 4.6-4.544h17.083c2.54 0 4.6 2.034 4.6 4.544v14.797c0 2.51-2.06 4.544-4.6 4.544" mask="url(#zkewdwpg0b)"/>
                </g>
                <path fill="#000" d="M104.478 14.87c.757-.856 1.495-1.855 2.213-2.998h-4.036c-1.804 2.334-3.613 3.494-5.392 3.453-1.042-.024-2.047-.47-2.952-1.103l2.951-4.903.623 1.02c.898 1.276 1.938.614 2.396.306.63-.424 1.14-.863 1.14-.863L97.262 2.88l-10.79 17.93h3.874l2.249-3.736c1.313.884 2.854 1.533 4.577 1.576.063.002.125.003.188.003 1.589 0 3.127-.51 4.605-1.52l2.213 3.677h3.875l-3.575-5.94zM57.89 7.792c-1.721 0-3.093.66-3.966 1.906l-.122.174-.12-.175c-.845-1.246-2.161-1.905-3.805-1.905-1.573 0-2.853.605-3.703 1.75l-.114.14-.705-1.57-3.954-.006 1.061 2.363V20.8h3.846v-7.328c0-1.574.828-2.515 2.216-2.515 1.371 0 2.19.94 2.19 2.515v7.329h3.845v-7.329c0-1.574.829-2.515 2.217-2.515 1.37 0 2.19.94 2.19 2.515v7.329h3.845v-7.86c0-3.128-1.932-5.148-4.92-5.148zm16.23 5.347l-.037-.177c-.299-1.439-1.374-2.298-2.877-2.298-1.52 0-2.605.86-2.903 2.298l-.037.177h5.853zm3.334-.449v3.188h-9.1l.058.19c.293.954.987 1.617 2.008 1.944.844.246 1.977.234 2.824-.025.77-.236 1.224-.49 1.224-.49l2.004 2.255c-1.273.857-2.987 1.367-4.603 1.367-4.276 0-7.15-2.678-7.15-6.663 0-3.862 2.728-6.664 6.487-6.664 3.248 0 5.525 1.785 6.248 4.898zm-41.001 1.766c0-1.828-1.3-3.154-3.092-3.154s-3.092 1.326-3.092 3.154c0 1.827 1.3 3.153 3.092 3.153s3.092-1.326 3.092-3.153zm3.845 0c0 1.884-.742 3.6-2.09 4.832-1.293 1.18-3.014 1.831-4.847 1.831-1.833 0-3.554-.65-4.846-1.83-1.349-1.232-2.091-2.949-2.091-4.833 0-1.885.742-3.602 2.09-4.833 1.293-1.18 3.014-1.83 4.847-1.83 1.833 0 3.554.65 4.846 1.83 1.349 1.231 2.091 2.948 2.091 4.833zm-30.27-.133c-.082-1.754-1.382-3.02-3.092-3.02-1.791 0-3.091 1.325-3.091 3.153 0 1.827 1.3 3.153 3.091 3.153 1.712 0 3.012-1.267 3.092-3.014v-.272zm3.846 3.717l.75 2.76h-3.464l-.49-1.768-.18.192c-1.14 1.222-2.685 1.895-4.35 1.895-1.617 0-3.138-.648-4.282-1.824C.66 18.063 0 16.344 0 14.456c0-1.887.66-3.606 1.859-4.838C3.003 8.44 4.524 7.793 6.14 7.793c1.587 0 3.067.608 4.168 1.713l.251.251V8.112h3.315v9.93zm7.985-9.929h4.086l-1.408 3.165H21.86v4.616c0 1.176.485 1.724 1.526 1.724l1.1.017v3.167h-1.843c-3.244 0-4.629-1.253-4.629-4.19v-5.334h-1.83V8.112h1.83V4.973h3.846v3.14z" transform="translate(-112 -170) translate(112 170)"/>
            </g>
        </g>
    </g>
</svg>
